# Blender v3.1.2 OBJ File: ''
# www.blender.org
mtllib MazeWall_unoptimized_uv.mtl
o Cube.001
v -4.000000 14.000000 4.000000
v -4.000000 0.000000 -4.000000
v -4.000000 -0.000000 4.000000
v -4.000000 14.000000 -3.999999
v 4.000000 0.000000 -4.000000
v 4.000000 14.000000 -3.999999
v 4.000000 -0.000000 4.000000
v 4.000000 14.000000 4.000000
vt 0.750004 0.000029
vt 0.999971 0.437471
vt 0.750004 0.437471
vt 0.000103 0.000029
vt 0.250070 0.437471
vt 0.000103 0.437471
vt 0.250070 0.000029
vt 0.500037 0.437471
vt 0.500037 0.000029
vt 0.999971 0.000029
vn -1.0000 -0.0000 0.0000
vn 0.0000 0.0000 -1.0000
vn 1.0000 -0.0000 0.0000
vn 0.0000 -0.0000 1.0000
usemtl Default_OBJ
s 1
f 1/1/1 2/2/1 3/3/1
f 4/4/2 5/5/2 2/6/2
f 6/7/3 7/8/3 5/5/3
f 8/9/4 3/3/4 7/8/4
f 1/1/1 4/10/1 2/2/1
f 4/4/2 6/7/2 5/5/2
f 6/7/3 8/9/3 7/8/3
f 8/9/4 1/1/4 3/3/4
